<?xml version="1.0" encoding="utf-8"?>
<!-- Generator: Adobe Illustrator 26.2.1, SVG Export Plug-In . SVG Version: 6.00 Build 0)  -->
<svg version="1.1" xmlns="http://www.w3.org/2000/svg" xmlns:xlink="http://www.w3.org/1999/xlink" x="0px" y="0px"
	 viewBox="0 0 565 148" style="enable-background:new 0 0 565 148;" xml:space="preserve">
<style type="text/css">
	.st0{display:none;}
	.st1{display:inline;}
	.st2{fill:#FFFFFF;}
</style>
<g id="Calque_2" class="st0">
	<rect class="st1" width="569" height="148"/>
</g>
<g id="a">
	<path class="st2" d="M54,0L37.9,8.7L43,12l16-8L54,0z"/>
	<path class="st2" d="M87.8,67.6V16.4h6v46h33.5v5.3L87.8,67.6L87.8,67.6z"/>
	<path class="st2" d="M207.6,67.6V16.4h46.9v5.4h-40.9v17.5h36.6v5.2h-36.6v23.1L207.6,67.6L207.6,67.6z"/>
	<path class="st2" d="M293.5,69.4c-5.6,0-10.5-1-14.7-2.9c-4.2-2-7.5-4.8-9.9-8.6s-3.5-8.3-3.5-13.6V16.4h6.1v28
		c0,4.3,0.9,7.8,2.7,10.8c1.8,2.9,4.4,5.1,7.7,6.6s7.2,2.2,11.6,2.2s8.3-0.7,11.6-2.2s5.9-3.7,7.7-6.6c1.8-2.9,2.7-6.5,2.7-10.8v-28
		h6v27.9c0,5.3-1.2,9.8-3.5,13.6s-5.6,6.7-9.9,8.6C304,68.5,299.1,69.5,293.5,69.4L293.5,69.4z"/>
	<path class="st2" d="M387.6,69.1c-1.4,0-2.6-0.3-3.6-0.8c-1.1-0.5-2-1.3-2.8-2.2c-0.8-1-1.4-2.1-2-3.3l-4.3-9.9
		c-0.8-1.9-2-3.5-3.4-4.7s-3-1.8-4.8-1.8h-25.6v21.2h-6V16.4h37.2c3.7,0,6.9,0.6,9.7,1.8s5,2.9,6.5,5.2c1.5,2.2,2.3,4.9,2.3,7.8
		c0,2.6-0.6,4.9-1.9,6.9s-3,3.6-5.4,4.9c-2.3,1.2-5,2-8.1,2.2v0.1c1.3,0.7,2.5,1.7,3.4,2.9c1,1.2,1.8,2.6,2.4,4.2l3.6,8.3
		c0.5,1.1,1,2,1.5,2.5c0.5,0.6,1.2,0.9,2.1,0.9s1.7-0.3,2.5-0.9c0.8-0.6,1.5-1.4,2-2.5l3,3.6c-1.1,1.5-2.3,2.7-3.7,3.6
		C390.9,68.6,389.4,69.1,387.6,69.1L387.6,69.1z M371.8,41.1c2.6,0,4.8-0.4,6.8-1.2s3.4-1.9,4.5-3.4s1.6-3.1,1.6-5s-0.5-3.6-1.6-5.1
		s-2.6-2.6-4.5-3.4c-1.9-0.8-4.2-1.2-6.8-1.2h-30.7v19.3L371.8,41.1L371.8,41.1z"/>
	<path class="st2" d="M135.4,88.4h-7.1L101,139.6h0.7l26.4-50.2l7.8,0l26.4,50.2h0.2L135.4,88.4L135.4,88.4z"/>
	<path class="st2" d="M226,141.1c-1.4,0-2.6-0.3-3.6-0.8c-1.1-0.5-2-1.3-2.8-2.2c-0.8-1-1.4-2.1-2-3.3l-4.3-9.9
		c-0.8-1.9-1.9-3.5-3.4-4.7c-1.4-1.2-3-1.8-4.8-1.8h-25.6v21.2h-6V88.4h37.2c3.7,0,6.9,0.6,9.7,1.8s5,2.9,6.5,5.2
		c1.5,2.2,2.3,4.9,2.3,7.8c0,2.6-0.6,4.9-1.9,6.9s-3.1,3.6-5.4,4.9c-2.3,1.2-5,2-8.1,2.2v0.1c1.3,0.7,2.4,1.7,3.4,2.9
		c1,1.2,1.8,2.6,2.4,4.2l3.6,8.3c0.5,1.1,1,2,1.5,2.5c0.5,0.6,1.2,0.9,2.1,0.9s1.7-0.3,2.5-0.9s1.4-1.4,2-2.5l3.1,3.6
		c-1.1,1.5-2.3,2.7-3.7,3.6S227.7,141.1,226,141.1L226,141.1z M210.2,113.1c2.6,0,4.8-0.4,6.8-1.2c1.9-0.8,3.4-1.9,4.5-3.4
		c1.1-1.4,1.6-3.1,1.6-5s-0.5-3.7-1.6-5.1c-1.1-1.5-2.6-2.6-4.5-3.4c-1.9-0.8-4.2-1.2-6.8-1.2h-30.7v19.3L210.2,113.1L210.2,113.1z"
		/>
	<path class="st2" d="M245,139.6V88.4h8.1l40.9,45.2h0.1V88.4h6.1v51.3H292l-40.9-45.1H251v45.1H245L245,139.6z"/>
	<path class="st2" d="M383.6,139.6V88.4h6v46h33.5v5.3L383.6,139.6L383.6,139.6z"/>
	<path class="st2" d="M434.1,139.6V88.4h30.2c9.6,0,17,2.2,22.1,6.7c5.1,4.4,7.7,10.8,7.7,19c0,5.5-1.1,10.1-3.5,13.9
		c-2.3,3.8-5.7,6.7-10.1,8.7c-4.5,2-9.9,3-16.2,3H434.1L434.1,139.6z M464.4,134.3c5.1,0,9.4-0.8,12.9-2.4c3.5-1.6,6.2-3.9,8.1-6.9
		s2.8-6.7,2.8-11c0-6.5-2-11.6-6.1-15.1c-4.1-3.5-10-5.2-17.6-5.2h-24.2v40.6H464.4z"/>
	<path class="st2" d="M536.8,141.4c-5,0-9.6-0.7-13.8-2.1s-7.9-3.3-10.9-5.8s-5.2-5.3-6.5-8.5l5-3.3c0.9,2.8,2.6,5.2,5.2,7.4
		c2.6,2.2,5.7,3.9,9.5,5.1c3.7,1.2,7.7,1.8,11.9,1.8c3.6,0,6.8-0.4,9.6-1.3s4.9-2.1,6.5-3.6c1.5-1.5,2.3-3.2,2.3-5.1
		c0-2.3-1.2-4.2-3.7-5.6c-2.5-1.5-6.3-2.6-11.7-3.4l-13.5-2.2c-6.1-0.9-10.5-2.4-13.2-4.4c-2.7-2-4.1-4.9-4.1-8.7
		c0-3.1,1-5.7,2.9-8.1c1.9-2.3,4.6-4.1,8-5.3s7.3-1.8,11.6-1.8c3.8,0,7.4,0.5,10.8,1.5s6.3,2.4,8.8,4.2s4.4,3.8,5.6,6.2l-4.6,3.6
		c-1.1-1.9-2.6-3.7-4.7-5.2s-4.5-2.7-7.2-3.6S535,92,531.9,92s-6,0.4-8.4,1.2c-2.5,0.8-4.4,1.9-5.8,3.4c-1.4,1.4-2.1,3.1-2.1,4.9
		c0,2.1,1,3.8,2.9,5.1c1.9,1.2,5.1,2.2,9.4,2.8l13.2,2c7.2,1.1,12.4,2.8,15.6,5.1s4.9,5.3,4.9,9.2c0,3.2-1,5.9-3.1,8.3
		s-5,4.2-8.7,5.6S541.6,141.5,536.8,141.4L536.8,141.4z"/>
	<path class="st2" d="M169.9,16.4h-0.4l-7.2,0l-18,33.9l-9.1,17.3L135,68h62L169.9,16.4z M144.4,62l6.4-12.1l12.6-23.7l5,0h0.3
		l19,36.1h-43.4L144.4,62z"/>
	<path class="st2" d="M135.4,88.3h-0.4l-7.2,0l-18,33.9l-9.1,17.3l-0.2,0.4h62L135.4,88.3z M110,133.8l6.4-12.1L129,98l5,0h0.3
		l19,36.1h-43.4L110,133.8z"/>
	<path class="st2" d="M345.8,88.3h-0.4l-7.2,0l-18,33.9l-9.1,17.3l-0.2,0.4h62L345.8,88.3z M320.3,133.8l6.4-12.1L339.3,98l5,0h0.3
		l19,36.1h-43.4L320.3,133.8z"/>
	<path class="st2" d="M69.9,27.8c-2.9-4.2-7-7.4-12.4-9.8c-5.3-2.3-11.4-3.5-18.1-3.5c-6.8,0-12.8,1.2-18.1,3.5
		C16,20.4,11.9,23.6,9,27.8C6,32,4.6,36.7,4.6,42C4.6,47.4,6,52.1,9,56.2c2.9,4.2,7,7.4,12.3,9.7c5.3,2.3,11.3,3.5,18.1,3.5
		c6.8,0,12.8-1.2,18.1-3.5c5.3-2.3,9.4-5.6,12.4-9.7c2.9-4.1,4.4-8.9,4.4-14.2C74.3,36.7,72.8,32,69.9,27.8z M62.8,52.9
		c-2.3,3.2-5.4,5.7-9.5,7.5c-4.1,1.8-8.7,2.7-13.9,2.7s-9.8-0.9-13.9-2.7c-4.1-1.8-7.2-4.3-9.5-7.5c-2.3-3.2-3.4-6.8-3.4-10.9
		s1.1-7.8,3.4-10.9c2.3-3.2,5.4-5.7,9.5-7.5c4.1-1.8,8.7-2.7,13.9-2.7s9.9,0.9,13.9,2.7c4.1,1.8,7.2,4.3,9.5,7.5
		c2.3,3.2,3.4,6.9,3.4,10.9C66.2,46.1,65.1,49.8,62.8,52.9z"/>
</g>
</svg>
