<?xml version="1.0" encoding="utf-8"?>
<!-- Generator: Adobe Illustrator 26.2.1, SVG Export Plug-In . SVG Version: 6.00 Build 0)  -->
<svg version="1.1" xmlns="http://www.w3.org/2000/svg" xmlns:xlink="http://www.w3.org/1999/xlink" x="0px" y="0px"
	 viewBox="0 0 372 372" style="enable-background:new 0 0 372 372;" xml:space="preserve">
<style type="text/css">
	.st0{display:none;}
	.st1{display:inline;}
	.st2{display:inline;fill:#FFFFFF;}
	.st3{fill:#FFFFFF;}
</style>
<g id="Calque_2" class="st0">
	<rect x="-8" class="st1" width="380" height="372"/>
</g>
<g id="a" class="st0">
	<ellipse class="st2" cx="110.6" cy="207.2" rx="105.6" ry="83"/>
	<polygon class="st2" points="286.6,130.8 367,283.8 183,283.8 263.4,130.7 	"/>
	<polygon class="st2" points="95.1,124 80,113.1 127.3,84 142,97.3 	"/>
</g>
<g id="Calque_3">
	<g>
		<path class="st3" d="M205.6,25l-66.7,36.1l21.2,13.5l66.1-33L205.6,25z"/>
		<path class="st3" d="M251.5,120.3h-1.7l-31.7-0.1l-79.2,148.9l-40.1,76.2L98,347h272.6L251.5,120.3z M139.5,320.6l28.1-53.4
			L223,163.1l22.1,0h1.2l83.3,158.6H138.9L139.5,320.6z"/>
		<path class="st3" d="M271.3,139.8c-12.1-17.2-29.1-30.7-51.1-40.3c-21.9-9.6-46.9-14.4-74.9-14.4c-28.1,0-53,4.8-74.8,14.4
			c-21.8,9.6-38.8,23.1-50.9,40.3C7.4,157,1.4,176.7,1.4,198.7c0,22,6.1,41.6,18.2,58.7c12.1,17.1,29.1,30.5,50.9,40.1
			c21.9,9.6,46.8,14.4,74.8,14.4c28.1,0,53-4.8,74.9-14.4c21.9-9.6,39-23,51.1-40.1c12.1-17.1,18.2-36.7,18.2-58.7
			C289.4,176.7,283.4,157,271.3,139.8z M242.1,243.7c-9.3,13.2-22.4,23.4-39.2,30.8c-16.9,7.4-36,11.1-57.6,11.1
			s-40.7-3.7-57.5-11.1c-16.8-7.4-29.8-17.6-39.1-30.8c-9.3-13.1-14-28.2-14-45.1s4.7-32,14-45.2c9.3-13.2,22.3-23.5,39.1-30.9
			c16.8-7.4,35.9-11.1,57.5-11.1s40.7,3.7,57.6,11.1c16.9,7.4,29.9,17.7,39.2,30.9c9.3,13.2,14,28.3,14,45.2
			C256,215.6,251.4,230.6,242.1,243.7z"/>
	</g>
</g>
</svg>
