<svg width="23" height="28" viewBox="0 0 23 28" fill="none" xmlns="http://www.w3.org/2000/svg">
<path d="M0 27.8928L0.132933 20H1.5857L2.67765 25.4665L3.81708 20H5.22237L5.3648 27.8928H4.32032L4.20638 22.4068L3.11443 27.8928H2.26936L1.15842 22.3873L1.05397 27.8928H0Z" fill="white"/>
<path d="M7.49758 27.8928V20H10.726V21.0134H8.90287V23.2838H10.3367V24.2875H8.90287V26.8989H10.7449V27.8928H7.49758Z" fill="white"/>
<path d="M12.556 27.8928V20H13.534L15.4046 24.5018V20H16.563V27.8928H15.6325L13.7524 23.1766V27.8928H12.556Z" fill="white"/>
<path d="M20.8351 28C20.2654 28 19.8223 27.8928 19.5058 27.6784C19.1893 27.4641 18.9709 27.1587 18.8506 26.7625C18.7303 26.3662 18.6702 25.892 18.6702 25.3398V20H20.0375V25.5055C20.0375 25.7523 20.0533 25.9862 20.085 26.2071C20.1166 26.4214 20.1894 26.5968 20.3034 26.7333C20.4236 26.8632 20.6009 26.9281 20.8351 26.9281C21.082 26.9281 21.2592 26.8632 21.3668 26.7333C21.4808 26.5968 21.5536 26.4214 21.5852 26.2071C21.6232 25.9862 21.6422 25.7523 21.6422 25.5055V20H23V25.3398C23 25.892 22.9399 26.3662 22.8196 26.7625C22.6993 27.1587 22.4809 27.4641 22.1644 27.6784C21.8542 27.8928 21.4111 28 20.8351 28Z" fill="white"/>
<path d="M0 0.5H23M8 6.5H23M0 12.5H23" stroke="white"/>
</svg>
