<svg width="29" height="29" viewBox="0 0 29 29" fill="none" xmlns="http://www.w3.org/2000/svg">
<path d="M3.23157 29C2.65589 29 2.20311 28.8855 1.87322 28.6565C1.54981 28.4275 1.32342 28.1168 1.19405 27.7242C1.06468 27.3251 1 26.8671 1 26.3503V23.5141C1 22.9711 1.06468 22.5 1.19405 22.1009C1.32342 21.7018 1.54981 21.3943 1.87322 21.1784C2.20311 20.9625 2.65589 20.8546 3.23157 20.8546C3.77491 20.8546 4.19859 20.9494 4.5026 21.1392C4.81308 21.3223 5.033 21.5873 5.16237 21.9341C5.29174 22.2808 5.35642 22.6832 5.35642 23.1412V23.8085H3.97867V23.1215C3.97867 22.8991 3.96573 22.6963 3.93986 22.5131C3.92045 22.3299 3.859 22.186 3.75551 22.0813C3.65848 21.9701 3.48707 21.9144 3.24128 21.9144C2.99548 21.9144 2.81437 21.9733 2.69794 22.0911C2.58798 22.2023 2.51682 22.3561 2.48448 22.5523C2.45214 22.7421 2.43597 22.958 2.43597 23.2001V26.6545C2.43597 26.9424 2.45861 27.1812 2.50389 27.3709C2.54917 27.5541 2.63002 27.6948 2.74645 27.7929C2.86935 27.8845 3.03429 27.9303 3.24128 27.9303C3.4806 27.9303 3.64878 27.8747 3.74581 27.7635C3.8493 27.6457 3.91398 27.492 3.93986 27.3022C3.96573 27.1125 3.97867 26.8999 3.97867 26.6643V25.9479H5.35642V26.5858C5.35642 27.0569 5.29497 27.4756 5.17207 27.842C5.04918 28.2018 4.83249 28.4864 4.52201 28.6958C4.21799 28.8986 3.78785 29 3.23157 29Z" fill="white"/>
<path d="M7.37492 28.8921V20.9429H8.81089V27.891H10.7126V28.8921H7.37492Z" fill="white"/>
<path d="M14.5172 29C13.961 29 13.5179 28.8953 13.188 28.686C12.8581 28.4766 12.622 28.1756 12.4797 27.7831C12.3374 27.3905 12.2663 26.926 12.2663 26.3895V23.416C12.2663 22.8795 12.3374 22.4215 12.4797 22.042C12.622 21.656 12.8581 21.3616 13.188 21.1588C13.5179 20.956 13.961 20.8546 14.5172 20.8546C15.0865 20.8546 15.5328 20.956 15.8562 21.1588C16.1861 21.3616 16.4222 21.656 16.5645 22.042C16.7132 22.4215 16.7876 22.8795 16.7876 23.416V26.3994C16.7876 26.9293 16.7132 27.3905 16.5645 27.7831C16.4222 28.1691 16.1861 28.4701 15.8562 28.686C15.5328 28.8953 15.0865 29 14.5172 29ZM14.5172 27.9303C14.7566 27.9303 14.9312 27.878 15.0412 27.7733C15.1576 27.6686 15.2352 27.5247 15.274 27.3415C15.3128 27.1583 15.3323 26.9587 15.3323 26.7428V23.0823C15.3323 22.8598 15.3128 22.6603 15.274 22.4836C15.2352 22.307 15.1576 22.1696 15.0412 22.0715C14.9312 21.9668 14.7566 21.9144 14.5172 21.9144C14.2909 21.9144 14.1194 21.9668 14.003 22.0715C13.8866 22.1696 13.809 22.307 13.7702 22.4836C13.7313 22.6603 13.7119 22.8598 13.7119 23.0823V26.7428C13.7119 26.9587 13.7281 27.1583 13.7605 27.3415C13.7993 27.5247 13.8769 27.6686 13.9933 27.7733C14.1097 27.878 14.2844 27.9303 14.5172 27.9303Z" fill="white"/>
<path d="M20.8479 29C20.3757 29 19.9811 28.9084 19.6642 28.7252C19.3472 28.5355 19.1079 28.2607 18.9462 27.9009C18.7845 27.541 18.6939 27.0994 18.6745 26.576L19.9068 26.3307C19.9197 26.6382 19.9553 26.9097 20.0135 27.1452C20.0782 27.3807 20.172 27.5639 20.2949 27.6948C20.4242 27.8191 20.5924 27.8812 20.7994 27.8812C21.0322 27.8812 21.1972 27.8125 21.2942 27.6751C21.3912 27.5312 21.4397 27.3513 21.4397 27.1354C21.4397 26.7886 21.3621 26.504 21.2069 26.2816C21.0516 26.0591 20.8447 25.8367 20.5859 25.6142L19.5963 24.731C19.3181 24.4889 19.095 24.2207 18.9268 23.9263C18.7651 23.6253 18.6842 23.2557 18.6842 22.8173C18.6842 22.1892 18.8654 21.7051 19.2276 21.3649C19.5898 21.0247 20.0846 20.8546 20.7121 20.8546C21.0808 20.8546 21.388 20.9134 21.6338 21.0312C21.8796 21.1424 22.0736 21.2994 22.2159 21.5023C22.3647 21.7051 22.4747 21.9373 22.5458 22.199C22.617 22.4542 22.6623 22.7257 22.6817 23.0136L21.4592 23.2295C21.4462 22.9809 21.4171 22.7584 21.3718 22.5622C21.333 22.3659 21.2586 22.2121 21.1487 22.1009C21.0452 21.9897 20.8899 21.9341 20.683 21.9341C20.4695 21.9341 20.3046 22.006 20.1881 22.15C20.0782 22.2874 20.0232 22.4607 20.0232 22.6701C20.0232 22.9384 20.0782 23.1608 20.1881 23.3374C20.2981 23.5076 20.4566 23.6842 20.6635 23.8674L21.6435 24.7408C21.9669 25.0156 22.2418 25.3395 22.4682 25.7124C22.7011 26.0788 22.8175 26.5237 22.8175 27.0471C22.8175 27.4265 22.7334 27.7635 22.5652 28.0579C22.4035 28.3523 22.1739 28.5846 21.8764 28.7547C21.5853 28.9182 21.2425 29 20.8479 29Z" fill="white"/>
<path d="M24.6817 28.8921V20.9429H27.9806V21.9635H26.1177V24.2501H27.5828V25.2609H26.1177V27.891H28V28.8921H24.6817Z" fill="white"/>
<path d="M1.49993 13.2182L27.9999 1M1.13818 1.88935L28.3618 12.3288" stroke="white"/>
</svg>
